<mxfile host="Electron" modified="2024-06-05T23:36:21.895Z" agent="Mozilla/5.0 (Windows NT 10.0; Win64; x64) AppleWebKit/537.36 (KHTML, like Gecko) draw.io/24.4.0 Chrome/120.0.6099.109 Electron/28.1.0 Safari/537.36" etag="SgMewKkVVh4GFzLemsU7" version="24.4.0" type="device">
  <diagram name="Page-1" id="bZG9n26Y3MxWZ7c9N9JF">
    <mxGraphModel dx="683" dy="402" grid="1" gridSize="10" guides="1" tooltips="1" connect="1" arrows="1" fold="1" page="1" pageScale="1" pageWidth="850" pageHeight="1100" math="0" shadow="0">
      <root>
        <mxCell id="0" />
        <mxCell id="1" parent="0" />
        <mxCell id="8fg3wNohyKQ3thWw7Uea-6" value="" style="edgeStyle=orthogonalEdgeStyle;rounded=0;orthogonalLoop=1;jettySize=auto;html=1;" edge="1" parent="1" source="8fg3wNohyKQ3thWw7Uea-1" target="8fg3wNohyKQ3thWw7Uea-5">
          <mxGeometry relative="1" as="geometry" />
        </mxCell>
        <mxCell id="8fg3wNohyKQ3thWw7Uea-1" value="vocÃª ta bem?" style="rounded=0;whiteSpace=wrap;html=1;" vertex="1" parent="1">
          <mxGeometry x="580" y="170" width="120" height="60" as="geometry" />
        </mxCell>
        <mxCell id="8fg3wNohyKQ3thWw7Uea-2" value="Okay tchau" style="whiteSpace=wrap;html=1;rounded=0;" vertex="1" parent="1">
          <mxGeometry x="160" y="170" width="120" height="60" as="geometry" />
        </mxCell>
        <mxCell id="8fg3wNohyKQ3thWw7Uea-8" style="edgeStyle=orthogonalEdgeStyle;rounded=0;orthogonalLoop=1;jettySize=auto;html=1;" edge="1" parent="1" source="8fg3wNohyKQ3thWw7Uea-5" target="8fg3wNohyKQ3thWw7Uea-2">
          <mxGeometry relative="1" as="geometry" />
        </mxCell>
        <mxCell id="8fg3wNohyKQ3thWw7Uea-5" value="sim" style="whiteSpace=wrap;html=1;rounded=0;" vertex="1" parent="1">
          <mxGeometry x="380" y="170" width="120" height="60" as="geometry" />
        </mxCell>
      </root>
    </mxGraphModel>
  </diagram>
</mxfile>
